{
	"asset":{
		"generator":"Khronos glTF Blender I/O v4.1.63",
		"version":"2.0"
	},
	"scene":0,
	"scenes":[
		{
			"name":"Scene",
			"nodes":[
				0
			]
		}
	],
	"nodes":[
		{
			"mesh":0,
			"name":"tree_2",
			"translation":[
				1,
				0,
				0
			]
		}
	],
	"materials":[
		{
			"doubleSided":true,
			"name":"trunk",
			"pbrMetallicRoughness":{
				"baseColorFactor":[
					0.1052788645029068,
					0.03864811360836029,
					0.018611649051308632,
					1
				],
				"metallicFactor":0,
				"roughnessFactor":0.5
			}
		},
		{
			"doubleSided":true,
			"name":"leaf",
			"pbrMetallicRoughness":{
				"baseColorFactor":[
					0.006405868101865053,
					0.11236774921417236,
					0.009452076628804207,
					1
				],
				"metallicFactor":0
			}
		}
	],
	"meshes":[
		{
			"name":"Cube.016",
			"primitives":[
				{
					"attributes":{
						"POSITION":0,
						"NORMAL":1,
						"TEXCOORD_0":2
					},
					"indices":3,
					"material":0
				},
				{
					"attributes":{
						"POSITION":4,
						"NORMAL":5,
						"TEXCOORD_0":6
					},
					"indices":7,
					"material":1
				}
			]
		}
	],
	"accessors":[
		{
			"bufferView":0,
			"componentType":5126,
			"count":50,
			"max":[
				0.09476334601640701,
				0.7150778770446777,
				0.09476334601640701
			],
			"min":[
				-0.09476334601640701,
				0,
				-0.09476334601640701
			],
			"type":"VEC3"
		},
		{
			"bufferView":1,
			"componentType":5126,
			"count":50,
			"type":"VEC3"
		},
		{
			"bufferView":2,
			"componentType":5126,
			"count":50,
			"type":"VEC2"
		},
		{
			"bufferView":3,
			"componentType":5123,
			"count":96,
			"type":"SCALAR"
		},
		{
			"bufferView":4,
			"componentType":5126,
			"count":60,
			"max":[
				0.52951580286026,
				1.6873953342437744,
				0.5127147436141968
			],
			"min":[
				-0.52951580286026,
				0.5033592581748962,
				-0.49447378516197205
			],
			"type":"VEC3"
		},
		{
			"bufferView":5,
			"componentType":5126,
			"count":60,
			"type":"VEC3"
		},
		{
			"bufferView":6,
			"componentType":5126,
			"count":60,
			"type":"VEC2"
		},
		{
			"bufferView":7,
			"componentType":5123,
			"count":60,
			"type":"SCALAR"
		}
	],
	"bufferViews":[
		{
			"buffer":0,
			"byteLength":600,
			"byteOffset":0,
			"target":34962
		},
		{
			"buffer":0,
			"byteLength":600,
			"byteOffset":600,
			"target":34962
		},
		{
			"buffer":0,
			"byteLength":400,
			"byteOffset":1200,
			"target":34962
		},
		{
			"buffer":0,
			"byteLength":192,
			"byteOffset":1600,
			"target":34963
		},
		{
			"buffer":0,
			"byteLength":720,
			"byteOffset":1792,
			"target":34962
		},
		{
			"buffer":0,
			"byteLength":720,
			"byteOffset":2512,
			"target":34962
		},
		{
			"buffer":0,
			"byteLength":480,
			"byteOffset":3232,
			"target":34962
		},
		{
			"buffer":0,
			"byteLength":120,
			"byteOffset":3712,
			"target":34963
		}
	],
	"buffers":[
		{
			"byteLength":3832,
			"uri":"tree.bin"
		}
	]
}
