{
	"asset":{
		"generator":"Khronos glTF Blender I/O v4.1.63",
		"version":"2.0"
	},
	"scene":0,
	"scenes":[
		{
			"name":"Scene",
			"nodes":[
				0
			]
		}
	],
	"nodes":[
		{
			"mesh":0,
			"name":"Cube.042"
		}
	],
	"materials":[
		{
			"doubleSided":true,
			"name":"Roof_Bake",
			"pbrMetallicRoughness":{
				"baseColorTexture":{
					"index":0,
					"texCoord":1
				},
				"metallicFactor":0,
				"roughnessFactor":0.5
			}
		}
	],
	"meshes":[
		{
			"name":"Cube.072",
			"primitives":[
				{
					"attributes":{
						"POSITION":0,
						"NORMAL":1,
						"TEXCOORD_0":2,
						"TEXCOORD_1":3
					},
					"indices":4,
					"material":0
				}
			]
		}
	],
	"textures":[
		{
			"sampler":0,
			"source":0
		}
	],
	"images":[
		{
			"mimeType":"image/png",
			"name":"Roof_Bake",
			"uri":"Roof_Bake.png"
		}
	],
	"accessors":[
		{
			"bufferView":0,
			"componentType":5126,
			"count":1612,
			"max":[
				1.5400002002716064,
				1.7999999523162842,
				0.7465806007385254
			],
			"min":[
				-7.607600212097168,
				0.4000000059604645,
				-0.66890549659729
			],
			"type":"VEC3"
		},
		{
			"bufferView":1,
			"componentType":5126,
			"count":1612,
			"type":"VEC3"
		},
		{
			"bufferView":2,
			"componentType":5126,
			"count":1612,
			"type":"VEC2"
		},
		{
			"bufferView":3,
			"componentType":5126,
			"count":1612,
			"type":"VEC2"
		},
		{
			"bufferView":4,
			"componentType":5123,
			"count":3588,
			"type":"SCALAR"
		}
	],
	"bufferViews":[
		{
			"buffer":0,
			"byteLength":19344,
			"byteOffset":0,
			"target":34962
		},
		{
			"buffer":0,
			"byteLength":19344,
			"byteOffset":19344,
			"target":34962
		},
		{
			"buffer":0,
			"byteLength":12896,
			"byteOffset":38688,
			"target":34962
		},
		{
			"buffer":0,
			"byteLength":12896,
			"byteOffset":51584,
			"target":34962
		},
		{
			"buffer":0,
			"byteLength":7176,
			"byteOffset":64480,
			"target":34963
		}
	],
	"samplers":[
		{
			"magFilter":9729,
			"minFilter":9987
		}
	],
	"buffers":[
		{
			"byteLength":71656,
			"uri":"station_roof.bin"
		}
	]
}
