{
	"asset":{
		"generator":"Khronos glTF Blender I/O v4.1.63",
		"version":"2.0"
	},
	"scene":0,
	"scenes":[
		{
			"name":"Scene",
			"nodes":[
				0
			]
		}
	],
	"nodes":[
		{
			"mesh":0,
			"name":"Cube.014"
		}
	],
	"materials":[
		{
			"doubleSided":true,
			"name":"Station_Bake_2",
			"pbrMetallicRoughness":{
				"baseColorTexture":{
					"index":0,
					"texCoord":1
				},
				"metallicFactor":0,
				"roughnessFactor":0.5
			}
		}
	],
	"meshes":[
		{
			"name":"Cube.053",
			"primitives":[
				{
					"attributes":{
						"POSITION":0,
						"NORMAL":1,
						"TEXCOORD_0":2,
						"TEXCOORD_1":3
					},
					"indices":4,
					"material":0
				}
			]
		}
	],
	"textures":[
		{
			"sampler":0,
			"source":0
		}
	],
	"images":[
		{
			"mimeType":"image/png",
			"name":"Station_Bake_2",
			"uri":"Station_Bake_2.png"
		}
	],
	"accessors":[
		{
			"bufferView":0,
			"componentType":5126,
			"count":707,
			"max":[
				14.240001678466797,
				0.3999999761581421,
				7.235498428344727
			],
			"min":[
				-9.240001678466797,
				0,
				-0.6589186191558838
			],
			"type":"VEC3"
		},
		{
			"bufferView":1,
			"componentType":5126,
			"count":707,
			"type":"VEC3"
		},
		{
			"bufferView":2,
			"componentType":5126,
			"count":707,
			"type":"VEC2"
		},
		{
			"bufferView":3,
			"componentType":5126,
			"count":707,
			"type":"VEC2"
		},
		{
			"bufferView":4,
			"componentType":5123,
			"count":1908,
			"type":"SCALAR"
		}
	],
	"bufferViews":[
		{
			"buffer":0,
			"byteLength":8484,
			"byteOffset":0,
			"target":34962
		},
		{
			"buffer":0,
			"byteLength":8484,
			"byteOffset":8484,
			"target":34962
		},
		{
			"buffer":0,
			"byteLength":5656,
			"byteOffset":16968,
			"target":34962
		},
		{
			"buffer":0,
			"byteLength":5656,
			"byteOffset":22624,
			"target":34962
		},
		{
			"buffer":0,
			"byteLength":3816,
			"byteOffset":28280,
			"target":34963
		}
	],
	"samplers":[
		{
			"magFilter":9729,
			"minFilter":9987
		}
	],
	"buffers":[
		{
			"byteLength":32096,
			"uri":"station.bin"
		}
	]
}
