{
	"asset":{
		"generator":"Khronos glTF Blender I/O v4.1.63",
		"version":"2.0"
	},
	"scene":0,
	"scenes":[
		{
			"name":"Scene",
			"nodes":[
				0
			]
		}
	],
	"nodes":[
		{
			"mesh":0,
			"name":"Trolly"
		}
	],
	"materials":[
		{
			"doubleSided":true,
			"name":"Roof",
			"pbrMetallicRoughness":{
				"baseColorFactor":[
					0.021757040172815323,
					0.021757040172815323,
					0.021757040172815323,
					1
				],
				"metallicFactor":0,
				"roughnessFactor":0.5
			}
		}
	],
	"meshes":[
		{
			"name":"Cylinder",
			"primitives":[
				{
					"attributes":{
						"POSITION":0,
						"NORMAL":1,
						"TEXCOORD_0":2
					},
					"indices":3,
					"material":0
				}
			]
		}
	],
	"accessors":[
		{
			"bufferView":0,
			"componentType":5126,
			"count":792,
			"max":[
				0.251257985830307,
				0.3193090558052063,
				0.33945250511169434
			],
			"min":[
				-0.2512579560279846,
				0.009060006588697433,
				-0.31456711888313293
			],
			"type":"VEC3"
		},
		{
			"bufferView":1,
			"componentType":5126,
			"count":792,
			"type":"VEC3"
		},
		{
			"bufferView":2,
			"componentType":5126,
			"count":792,
			"type":"VEC2"
		},
		{
			"bufferView":3,
			"componentType":5123,
			"count":1524,
			"type":"SCALAR"
		}
	],
	"bufferViews":[
		{
			"buffer":0,
			"byteLength":9504,
			"byteOffset":0,
			"target":34962
		},
		{
			"buffer":0,
			"byteLength":9504,
			"byteOffset":9504,
			"target":34962
		},
		{
			"buffer":0,
			"byteLength":6336,
			"byteOffset":19008,
			"target":34962
		},
		{
			"buffer":0,
			"byteLength":3048,
			"byteOffset":25344,
			"target":34963
		}
	],
	"buffers":[
		{
			"byteLength":28392,
			"uri":"trolly.bin"
		}
	]
}
