{
	"asset":{
		"generator":"Khronos glTF Blender I/O v4.1.63",
		"version":"2.0"
	},
	"scene":0,
	"scenes":[
		{
			"name":"Scene",
			"nodes":[
				0
			]
		}
	],
	"nodes":[
		{
			"mesh":0,
			"name":"Train.006",
			"rotation":[
				0,
				-0.7071067094802856,
				0,
				0.7071068286895752
			],
			"scale":[
				1,
				1,
				1.0377607345581055
			]
		}
	],
	"materials":[
		{
			"doubleSided":true,
			"name":"Train_Bake",
			"pbrMetallicRoughness":{
				"baseColorTexture":{
					"index":0
				},
				"metallicFactor":0,
				"roughnessFactor":0.5
			}
		}
	],
	"meshes":[
		{
			"name":"Cube.013",
			"primitives":[
				{
					"attributes":{
						"POSITION":0,
						"NORMAL":1,
						"TEXCOORD_0":2
					},
					"indices":3,
					"material":0
				}
			]
		}
	],
	"textures":[
		{
			"sampler":0,
			"source":0
		}
	],
	"images":[
		{
			"mimeType":"image/png",
			"name":"TrainBake",
			"uri":"TrainBake.png"
		}
	],
	"accessors":[
		{
			"bufferView":0,
			"componentType":5126,
			"count":1793,
			"max":[
				0.3500000238418579,
				1.1763849258422852,
				3.6381428241729736
			],
			"min":[
				-0.34999996423721313,
				0.28568631410598755,
				-0.5545802116394043
			],
			"type":"VEC3"
		},
		{
			"bufferView":1,
			"componentType":5126,
			"count":1793,
			"type":"VEC3"
		},
		{
			"bufferView":2,
			"componentType":5126,
			"count":1793,
			"type":"VEC2"
		},
		{
			"bufferView":3,
			"componentType":5123,
			"count":4626,
			"type":"SCALAR"
		}
	],
	"bufferViews":[
		{
			"buffer":0,
			"byteLength":21516,
			"byteOffset":0,
			"target":34962
		},
		{
			"buffer":0,
			"byteLength":21516,
			"byteOffset":21516,
			"target":34962
		},
		{
			"buffer":0,
			"byteLength":14344,
			"byteOffset":43032,
			"target":34962
		},
		{
			"buffer":0,
			"byteLength":9252,
			"byteOffset":57376,
			"target":34963
		}
	],
	"samplers":[
		{
			"magFilter":9729,
			"minFilter":9987
		}
	],
	"buffers":[
		{
			"byteLength":66628,
			"uri":"train.bin"
		}
	]
}
